<svg xmlns="http://www.w3.org/2000/svg" viewBox="0 0 600.5 792"><linearGradient id="a" gradientUnits="userSpaceOnUse" x1="519.325" y1="138.734" x2="519.325"><stop offset="0" stop-color="#B78846"/><stop offset="1" stop-color="#E1AE65"/></linearGradient><path fill="url(#a)" d="M575.5 0c-5.7 3.6-15.4 8.8-30.4 8.8h-107c85.2 33.7 138.5 87.9 162.4 129.9L575.5 0z"/><linearGradient id="b" gradientUnits="userSpaceOnUse" x1="75.702" y1="138.654" x2="75.702"><stop offset="0" stop-color="#B78846"/><stop offset="1" stop-color="#E1AE65"/></linearGradient><path fill="url(#b)" d="M151.4 8.8h-96C40.4 8.8 30.7 3.6 25 0L0 138.7c23.9-42 66.3-96.2 151.4-129.9z"/><linearGradient id="c" gradientUnits="userSpaceOnUse" x1="296.435" y1="792.007" x2="296.435" y2="449.83"><stop offset="0" stop-color="#B78846"/><stop offset="1" stop-color="#E1AE65"/></linearGradient><path fill="url(#c)" d="M323.9 715.4V509.6L269 449.8v265.5c0 41-12.8 64-31 76.6 5.1-.1 111.7-.1 116.9 0-16.8-11.3-28.7-43-31-76.5z"/><g><linearGradient id="d" gradientUnits="userSpaceOnUse" x1="122.979" y1="640.932" x2="122.979" y2="507.036"><stop offset="0" stop-color="#B78846"/><stop offset="1" stop-color="#E1AE65"/></linearGradient><path fill="url(#d)" d="M171.2 581.5c0-24.2 12.7-52.7 23.7-72.6.8-1.5-1.5-2.6-2.5-1.2-60 81.7-115.9 121-150 133.2 6.5-.2 152.9-.1 161.3 0-17.4-10.1-32.5-23.2-32.5-59.4z"/></g><g><linearGradient id="e" gradientUnits="userSpaceOnUse" x1="299.708" y1="640.932" x2="299.708" y2="8.888"><stop offset="0" stop-color="#B78846"/><stop offset="1" stop-color="#E1AE65"/></linearGradient><path fill="url(#e)" d="M483.8 569L323.9 386.9V85.5c0-41 12.8-64 31-76.6-5.1.1-111.7.1-116.9 0 16.8 11.4 28.7 43 31 76.6v238.8l-96.5-110c-6.6-8.7-10.3-19.2-10.3-33.3 0-10.8 3.3-18.2 8.1-23.2-4.5.1-124.3.1-129.3 0 12.7 7.7 38.5 28.4 60.4 55.1l305.8 343c8.6 9.7 15.8 20.8 19.6 33.1 2.2 7 3.4 13.7 3.4 19.6 0 16.6-6.6 26.4-14.7 32.3 6.3-.1 136.3-.1 142.8 0-12.8-7.2-54.4-46.9-74.5-71.9z"/></g><g><linearGradient id="f" gradientUnits="userSpaceOnUse" x1="477.754" y1="291.727" x2="477.754" y2="157.831"><stop offset="0" stop-color="#B78846"/><stop offset="1" stop-color="#E1AE65"/></linearGradient><path fill="url(#f)" d="M397.1 157.8c17.4 10.2 32.4 23.2 32.4 59.4 0 24.2-12.7 52.7-23.7 72.6-.8 1.5 1.5 2.6 2.5 1.2 60-81.7 115.9-121 150-133.2-6.4.2-152.8.2-161.2 0z"/></g></svg>