<svg id="Layer_1" xmlns="http://www.w3.org/2000/svg" viewBox="0 0 176.4 184.7"><style>.st0{fill:url(#SVGID_1_);} .st1{fill:url(#SVGID_2_);} .st2{fill:url(#SVGID_3_);} .st3{fill:url(#SVGID_4_);} .st4{fill:url(#SVGID_5_);} .st5{fill:url(#SVGID_6_);} .st6{fill:url(#SVGID_7_);} .st7{fill:url(#SVGID_8_);} .st8{fill:url(#SVGID_9_);} .st9{fill:url(#SVGID_10_);} .st10{fill:url(#SVGID_11_);} .st11{fill:url(#SVGID_12_);} .st12{fill:url(#SVGID_13_);} .st13{fill:url(#SVGID_14_);} .st14{fill:url(#SVGID_15_);} .st15{fill:url(#SVGID_16_);} .st16{fill:url(#SVGID_17_);} .st17{fill:url(#SVGID_18_);} .st18{fill:url(#SVGID_19_);} .st19{fill:url(#SVGID_20_);} .st20{fill:url(#SVGID_21_);} .st21{fill:url(#SVGID_22_);} .st22{fill:url(#SVGID_23_);} .st23{fill:url(#SVGID_24_);} .st24{fill:url(#SVGID_25_);} .st25{fill:url(#SVGID_26_);} .st26{fill:url(#SVGID_27_);} .st27{fill:url(#SVGID_28_);} .st28{fill:url(#SVGID_29_);} .st29{fill:url(#SVGID_30_);} .st30{fill:url(#SVGID_31_);} .st31{fill:url(#SVGID_32_);} .st32{fill:url(#SVGID_33_);} .st33{fill:url(#SVGID_34_);} .st34{fill:url(#SVGID_35_);} .st35{fill:url(#SVGID_36_);} .st36{fill:url(#SVGID_37_);} .st37{fill:url(#SVGID_38_);} .st38{fill:url(#SVGID_39_);} .st39{fill:url(#SVGID_40_);} .st40{fill:url(#SVGID_41_);} .st41{fill:url(#SVGID_42_);} .st42{fill:url(#SVGID_43_);} .st43{fill:url(#SVGID_44_);} .st44{fill:url(#SVGID_45_);} .st45{fill:url(#SVGID_46_);} .st46{fill:url(#SVGID_47_);} .st47{fill:url(#SVGID_48_);} .st48{fill:url(#SVGID_49_);} .st49{fill:url(#SVGID_50_);} .st50{fill:url(#SVGID_51_);} .st51{fill:url(#SVGID_52_);} .st52{fill:url(#SVGID_53_);} .st53{fill:url(#SVGID_54_);} .st54{fill:url(#SVGID_55_);} .st55{fill:url(#SVGID_56_);} .st56{fill:url(#SVGID_57_);} .st57{fill:url(#SVGID_58_);} .st58{fill:url(#SVGID_59_);} .st59{fill:url(#SVGID_60_);}</style><linearGradient id="SVGID_1_" gradientUnits="userSpaceOnUse" x1="59.856" y1="92.378" x2="59.856" y2="101.767"><stop offset="0" stop-color="#E1AE65"/><stop offset="1" stop-color="#B78846"/></linearGradient><path class="st0" d="M63.6 98.2v-4.9-.2c.1 0 .1-.1.2-.1.1-.1.2-.1.2-.3 0-.2-.1-.3-1.1-.3h-.6c-1.1 0-1.1.2-1.1.3 0 .2.1.2.2.3.1 0 .1.1.2.1v5.2c0 1.1-.6 1.7-1.7 1.7s-1.7-.6-1.7-1.7v-5-.2s.1-.1.2-.1c.1-.1.2-.1.2-.3 0-.2-.1-.3-1.1-.3h-.7c-1.1 0-1.1.2-1.1.3 0 .2.2.3.3.3.1 0 .1.1.2.1v5c0 2.3 1.3 3.6 3.7 3.6 2.4.1 3.7-1.2 3.7-3.5z"/><linearGradient id="SVGID_2_" gradientUnits="userSpaceOnUse" x1="87.896" y1="62.175" x2="87.896" y2="71.665"><stop offset="0" stop-color="#E1AE65"/><stop offset="1" stop-color="#B78846"/></linearGradient><path class="st1" d="M85.4 68.6c-.2 0-.4 0-.8.9l-.2.4c-.5 1-.4 1.1-.2 1.2h.2c.2 0 .3-.1.3-.2.1 0 .2.1.5.2.1.1.3.1.5.2.7.3 1.4.4 2.1.4 2.8 0 4.1-1.6 4.1-3 0-2.2-2-2.6-3.5-3-1.1-.3-1.8-.4-1.8-1 0-.5.4-.8 1.1-.8 1.3 0 1.9.6 1.9.8v.1c0 .2.1.4.2.4h.1c.1 0 .3 0 .8-.8l.3-.5c.5-.8.5-.9.4-1v-.1h-.2c-.1 0-.2 0-.3.1h-.1-.1c-.1 0-.2-.1-.4-.1-.1-.1-.3-.1-.5-.2-.6-.2-1.3-.4-2.1-.4-2.5 0-3.4 1.5-3.4 2.8 0 2 1.9 2.4 3.4 2.7 1.2.3 2 .5 2 1.1 0 .5-.2 1.1-1.8 1.1-1 0-2.1-.4-2.1-.8-.1-.3-.2-.4-.4-.5z"/><linearGradient id="SVGID_3_" gradientUnits="userSpaceOnUse" x1="116.603" y1="92.378" x2="116.603" y2="101.666"><stop offset="0" stop-color="#E1AE65"/><stop offset="1" stop-color="#B78846"/></linearGradient><path class="st2" d="M118.2 92.7c0-.2-.1-.3-1.1-.3h-1c-1.1 0-1.1.2-1.1.3 0 .2.2.3.4.4 0 .1 0 .2-.1.4l-2.5 7.3c0 .1 0 .1-.1.2l-.1.1c-.1.1-.2.2-.2.3 0 .2.1.3 1.1.3h.4c1.1 0 1.1-.2 1.1-.3 0-.2-.1-.3-.2-.3 0 0-.1 0-.1-.1v-.1s0-.1.1-.2l.2-.7c.1-.3.5-.5.9-.5h1.2c.4 0 .9.3 1 .6l.3.8v.1c-.3.1-.3.3-.3.4 0 .2.1.3 1.1.3h.5c1.1 0 1.1-.2 1.1-.3 0-.1-.1-.2-.2-.3l-.1-.1s-.1-.1-.1-.2l-2.4-7-.1-.2c-.1-.3-.1-.4-.1-.5 0 0 .1 0 .1-.1.2 0 .3-.1.3-.3zm-1.1 4.9c-.1.1-.2.2-.4.2h-.4c-.2 0-.3-.1-.4-.2-.1-.1-.1-.3 0-.4l.5-1.8c0-.1 0-.2.1-.2 0 .1 0 .2.1.2l.6 1.8c0 .2 0 .3-.1.4z"/><linearGradient id="SVGID_4_" gradientUnits="userSpaceOnUse" x1="88.179" y1="76.601" x2="88.179" y2="129.382"><stop offset="0" stop-color="#E1AE65"/><stop offset="1" stop-color="#B78846"/></linearGradient><path class="st3" d="M89.6 119.2c.1 0 .3.1.4.3l.8 1.2c2.2 3.1 5.5 4.9 9.1 4.9 2.6 0 5.1-.9 7.1-2.7 4.9-4.3 5.8-12.1 2-17.6L89.2 77.2c-.5-.7-1.5-.7-2 0l-19.8 28.2c-3.8 5.4-2.9 13.3 2 17.6 2 1.8 4.5 2.7 7.1 2.7 3.6 0 6.9-1.8 9.1-4.9l.8-1.2c.2-.2.3-.3.4-.3.2 0 .3.3.3.7v5.6c0 .8-.7 1.5-1.5 1.5h-2.7c-.9 0-1.7.5-1.7 1.2s.7 1.2 1.7 1.2h11.6c.9 0 1.7-.5 1.7-1.2s-.7-1.2-1.7-1.2H91c-.8 0-1.5-.7-1.5-1.5V120c-.1-.6 0-.8.1-.8zm9.1 3.5c-.2.2-.5.3-.9.2-2-.5-3.7-1.8-5-3.6l-2.5-3.6c-.5-.7-.9-2-.9-2.9v-9.2c0-.8.6-1.5 1.4-1.5.8 0 1.6.7 1.9 1.5l6.1 18.1c.1.4.1.8-.1 1zm7.8-2.6c-.3.4-.6.7-1 1-.7.6-1.5 1.1-2.4 1.5-.7.3-1.7-.2-1.9-1l-6.1-18c-.1-.4-.1-.8.1-1 .2-.2.5-.4.8-.4.8 0 1.8.6 2.3 1.3l8.2 14.1c.4.8.4 1.9 0 2.5zm-4.1-17.9c.8 0 2 .6 2.4 1.3l2.3 3.2c1.6 2.3 2.3 5.4 1.8 8.3-.1.3-.2.6-.5.6-.2 0-.4-.2-.6-.5l-6.8-11.6c-.1-.2-.2-.3-.2-.5s.2-.6.4-.7c.1-.1.3-.1.5-.1h.7zm-33.8 13.1c-.2.3-.4.5-.6.5-.2 0-.4-.2-.5-.6-.6-3 .1-6.1 1.7-8.5l2.3-3.2c.5-.7 1.6-1.3 2.4-1.3h.8c.4 0 .7.1.8.4.1.2.1.5-.1.9l-6.8 11.8zm6.7 6.3c-.3.8-1.2 1.3-1.9 1-.9-.4-1.7-.9-2.5-1.5-.3-.3-.6-.6-.9-1-.4-.5-.4-1.6 0-2.4l8.3-14.2c.4-.7 1.5-1.3 2.3-1.3.4 0 .7.1.8.4.2.3.2.6.1 1l-6.2 18zm11.7-8.7c0 .9-.4 2.1-.9 2.9l-2.5 3.6c-1.2 1.8-2.9 3-4.8 3.5-.4.1-.7 0-.9-.2-.2-.2-.2-.5-.1-.9l6.1-18.1c.3-.8 1.1-1.5 1.8-1.5s1.3.7 1.3 1.5v9.2zM75.6 99.8c-.4 0-.7-.1-.8-.3-.1-.2 0-.5.2-.8l12.4-17.6c.2-.3.5-.5.8-.5.3 0 .6.2.9.5l12.4 17.6c.2.3.3.6.2.8-.1.2-.4.3-.8.3H75.6z"/><linearGradient id="SVGID_5_" gradientUnits="userSpaceOnUse" x1="88.003" y1="88.845" x2="88.003" y2="95.988"><stop offset="0" stop-color="#E1AE65"/><stop offset="1" stop-color="#B78846"/></linearGradient><path class="st4" d="M94.2 91.5c-1.7-1.7-3.9-2.7-6.2-2.7s-4.5 1-6.2 2.7l-.4.4c-.2.2-.2.6 0 .9l.4.4c1.8 1.8 4 2.8 6.2 2.8 2.3 0 4.5-1 6.2-2.8l.4-.4c.2-.2.2-.6 0-.9l-.4-.4zm-3.9 1.6c-1.5.7-3.2.7-4.7 0-.3-.2-.6-.4-.6-.7 0-.3.2-.6.6-.7.7-.3 1.5-.5 2.3-.5.8 0 1.6.2 2.3.5.3.2.6.4.6.7.1.3-.1.6-.5.7z"/><linearGradient id="SVGID_6_" gradientUnits="userSpaceOnUse" x1="100.452" y1="69.172" x2="100.452" y2="81.089"><stop offset="0" stop-color="#E1AE65"/><stop offset="1" stop-color="#B78846"/></linearGradient><path class="st5" d="M103.9 69.3c-.5-.3-1.1-.1-1.4.4l-5.9 9.9c-.1.2-.2.5-.1.8.1.3.2.5.5.6.2.1.3.1.5.1.4 0 .7-.2.9-.5l5.9-9.9c.2-.5.1-1.1-.4-1.4z"/><linearGradient id="SVGID_7_" gradientUnits="userSpaceOnUse" x1="106.942" y1="73.049" x2="106.942" y2="84.951"><stop offset="0" stop-color="#E1AE65"/><stop offset="1" stop-color="#B78846"/></linearGradient><path class="st6" d="M112.7 73.3L100 83.2c-.2.2-.3.4-.4.7 0 .3 0 .5.2.7.2.2.5.4.8.4.2 0 .4-.1.6-.2l12.7-9.9c.4-.3.5-1 .2-1.4-.3-.5-1-.6-1.4-.2z"/><linearGradient id="SVGID_8_" gradientUnits="userSpaceOnUse" x1="109.233" y1="83.627" x2="109.233" y2="89.171"><stop offset="0" stop-color="#E1AE65"/><stop offset="1" stop-color="#B78846"/></linearGradient><path class="st7" d="M115.4 83.7l-12.9 3.5c-.5.1-.8.7-.7 1.2.1.4.5.7 1 .7h.3l12.9-3.5c.5-.1.8-.7.7-1.2-.2-.6-.8-.9-1.3-.7z"/><linearGradient id="SVGID_9_" gradientUnits="userSpaceOnUse" x1="38.255" y1="102.483" x2="38.255" y2="112.832"><stop offset="0" stop-color="#E1AE65"/><stop offset="1" stop-color="#B78846"/></linearGradient><path class="st8" d="M35.9 108.4l8.3-1.8h.4c.1 0 .2.1.2.1.1.1.3-.1.3-.3 0-.1 0-.3-.1-.5l-.3-1.5c-.1-.5-.3-.9-.4-.9-.1 0-.1.3-.2.5-.1.1-.2.2-.4.2l-8.3 1.8c-.5.1-1-.2-1.1-.7l-.4-1.8c-.1-.2-.1-.4 0-.5.1-.3.4-.4.4-.5 0-.1-.4-.1-.9 0l-1.1.2c-.5.1-.9.3-.9.4 0 .1.3.1.5.4.1.1.1.3.2.5l1.7 7.7c0 .2.1.4.1.5 0 .3-.3.4-.3.5 0 .1.4.1.9 0l1.1-.2c.5-.1.9-.3.9-.4 0-.1-.3-.1-.5-.3-.1-.1-.1-.3-.2-.5l-.4-1.8c-.3-.5 0-1 .5-1.1z"/><linearGradient id="SVGID_10_" gradientUnits="userSpaceOnUse" x1="37.96" y1="85.019" x2="37.96" y2="96.883"><stop offset="0" stop-color="#E1AE65"/><stop offset="1" stop-color="#B78846"/></linearGradient><path class="st9" d="M35.5 93.2l-3-.3c-.2 0-.4-.1-.4-.2-.1-.1-.1-.2-.1-.3-.1-.1-.3-.1-.3.2 0 .1-.1.3-.1.5l-.2 1.7c0 .5 0 .9.1.9s.2-.2.4-.4c.1-.1.2-.1.5-.1l10.3 1c.2 0 .4.1.4.2.2.2.2.5.3.5.1 0 .2-.4.3-.9l.2-1.7v-.5c0-.3-.2-.4-.3-.2 0 .1-.1.2-.2.2-.1.1-.2.1-.5.1l-3.8-.4c-.5 0-.9-.5-.8-1l.3-3.2c0-.5.5-.9 1-.8l3.8.4c.2 0 .4.1.4.2.1.1.1.2.1.3.1.1.3.1.3-.2 0-.1.1-.3.1-.5l.2-1.7v-.5c0-.3-.2-.4-.3-.2 0 .1-.1.2-.2.2-.1.1-.2.1-.5.1l-10.3-1c-.2 0-.4-.1-.4-.2-.1-.1-.1-.2-.1-.3-.1-.1-.3-.1-.3.2 0 .1-.1.3-.1.5l-.2 1.7v.5c0 .3.2.4.3.2 0-.1.1-.2.2-.2.1-.1.2-.1.5-.1l3 .3c.5 0 .9.5.8 1l-.3 3.2c-.1.4-.6.8-1.1.8z"/><linearGradient id="SVGID_11_" gradientUnits="userSpaceOnUse" x1="42.16" y1="69.027" x2="42.16" y2="82.399"><stop offset="0" stop-color="#E1AE65"/><stop offset="1" stop-color="#B78846"/></linearGradient><path class="st10" d="M45.5 82.4c.1 0 .3-.3.5-.8l3-6.9c.1-.2.2-.3.2-.4.2-.2.5-.2.5-.3 0-.1-.3-.3-.8-.5l-.9-.4c-.5-.2-.9-.3-.9-.2 0 .1.2.3.2.6 0 .1-.1.3-.2.5l-1.6 4c-.2.5-.7.7-1.2.5l-1.4-.6c-.5-.2-.7-.7-.5-1.2l.8-1.9c.1-.3.2-.4.3-.5 0 0 .1-.1.2-.1s.2 0 .3-.1c0-.1-.3-.3-.8-.5l-.8-.4c-.5-.2-.9-.3-.9-.2 0 .1.2.3.2.6 0 .1-.1.3-.2.5l-.8 1.9c-.2.5-.7.7-1.2.5l-1.1-.5c-.5-.2-.7-.7-.5-1.2l1.7-3.8c.1-.2.2-.3.2-.4.2-.2.5-.2.5-.3 0-.1-.3-.3-.8-.5l-.8-.4c-.5-.2-.9-.3-.9-.2 0 .1.2.3.2.6 0 .1-.1.3-.2.5l-2.9 6.6c-.2.5-.3.9-.2.9.1 0 .2-.2.5-.4.2-.1.3-.1.5 0l9.5 4.2c.2.1.3.2.4.4-.1.1-.2.4-.1.4z"/><linearGradient id="SVGID_12_" gradientUnits="userSpaceOnUse" x1="50.44" y1="56.353" x2="50.44" y2="68.451"><stop offset="0" stop-color="#E1AE65"/><stop offset="1" stop-color="#B78846"/></linearGradient><path class="st11" d="M54.2 58.2c-2.6-2.3-6-2.7-8.4 0-2.4 2.7-1.6 6 1 8.4 2.6 2.3 6 2.7 8.4 0 2.3-2.7 1.6-6.1-1-8.4zm-.5 7.1c-1.4 1.6-3.3 1.4-5.4-.4-2.1-1.8-2.4-3.8-1.1-5.3 1.4-1.6 3.3-1.4 5.4.4 2.1 1.8 2.4 3.7 1.1 5.3z"/><linearGradient id="SVGID_13_" gradientUnits="userSpaceOnUse" x1="63.184" y1="45.65" x2="63.184" y2="59.796"><stop offset="0" stop-color="#E1AE65"/><stop offset="1" stop-color="#B78846"/></linearGradient><path class="st12" d="M66 47.3c-1-1.8-3-2.2-5.2-.9l-4.3 2.4c-.4.3-.8.5-.7.6 0 .1.3 0 .5.1.1 0 .2.1.3.3l5.1 9c.1.2.1.3.1.4 0 .2-.2.4-.2.5 0 .1.4-.1.9-.3l1.4-.8c.4-.3.8-.5.7-.6 0-.1-.3 0-.5-.1-.1 0-.2-.1-.3-.3l-1.6-2.8c-.3-.4-.1-1 .3-1.2l.3-.1c.4-.3 1.1-.2 1.6 0l2.8 1.8c.5.3.5.4.6.5.1.1 0 .2 0 .3-.1.1-.2.3-.1.3 0 .1.4-.1.9-.3l1.4-.8c.4-.3.8-.5.7-.6 0-.1-.5-.1-.9-.3-.2-.1-.5-.3-.8-.6l-2.6-1.7c-.4-.3-.4-.8-.2-1.2.6-1 .5-2.3-.2-3.6zm-2.9 3.8l-1.5.9c-.4.3-1 .1-1.3-.3l-.7-1.2c-.3-.4-.1-1 .3-1.3l1.5-.9c1.2-.7 2.1-.5 2.6.4.6.8.4 1.7-.9 2.4z"/><linearGradient id="SVGID_14_" gradientUnits="userSpaceOnUse" x1="76.259" y1="39.618" x2="76.259" y2="52.889"><stop offset="0" stop-color="#E1AE65"/><stop offset="1" stop-color="#B78846"/></linearGradient><path class="st13" d="M74.6 41.2c0-.1-.4-.1-.9 0l-1.8.4c-.5.1-.9.3-.9.4 0 .1.2.2.4.3.1.1.2.2.3.2l4.3 4.8c.3.4.7 1.1.8 1.6l.7 3.2v.5c-.1.2-.4.3-.4.4 0 .1.4.1.9 0l1.6-.3c.5-.1.9-.3.9-.4 0-.1-.3-.1-.5-.2-.1-.1-.2-.2-.2-.4l-.7-3.2c-.1-.5-.1-1.3.1-1.8l1.9-6.1c.1-.2.1-.3.2-.4.1-.2.3-.3.3-.4 0-.1-.4-.1-.9 0L79 40c-.5.1-.9.3-.9.4 0 .1.2.1.4.1s.2.1.2.2c.1.3-.7 2.2-1.1 3.7-.1.5-.5.6-.9.2-1.2-1.3-2.6-2.8-2.6-3 0-.1 0-.2.1-.3.2 0 .4-.1.4-.1z"/><linearGradient id="SVGID_15_" gradientUnits="userSpaceOnUse" x1="101.269" y1="40.239" x2="101.269" y2="54.864"><stop offset="0" stop-color="#E1AE65"/><stop offset="1" stop-color="#B78846"/></linearGradient><path class="st14" d="M96.1 51.3c-.1.2-.1.4-.3.4-.3.1-.6.1-.6.1 0 .1.4.3.8.4l7.3 2c.2.1.4.1.5.2.2.2.3.5.3.5.1 0 .3-.4.4-.8l.3-.9c.1-.5.2-.9.1-.9s-.3.2-.5.2c-.1 0-.3 0-.5-.1l-4.3-1.2c-.5-.1-.8-.6-.6-1.1l.4-1.5c.1-.5.6-.8 1.1-.6l2 .5c.3.1.4.1.5.2.1 0 .1.1.1.2s.1.2.2.2.3-.4.4-.8l.2-.9c.1-.5.2-.9.1-.9s-.3.2-.5.2c-.1 0-.3 0-.5-.1l-2-.5c-.5-.1-.8-.6-.6-1.1l.3-1.2c.1-.5.6-.8 1.1-.6l4 1.1c.2.1.3.1.5.2s.3.4.4.4c.1 0 .3-.4.4-.8l.2-.9c.1-.5.2-.9.1-.9s-.3.2-.5.2c-.1 0-.3 0-.5-.1l-7-1.9c-.5-.1-.9-.2-.9-.1s.2.2.5.4c.2.1.2.3.1.5l-3 10z"/><linearGradient id="SVGID_16_" gradientUnits="userSpaceOnUse" x1="112.553" y1="45.715" x2="112.553" y2="61.189"><stop offset="0" stop-color="#E1AE65"/><stop offset="1" stop-color="#B78846"/></linearGradient><path class="st15" d="M108.8 55.6c-.1.2-.2.3-.4.3-.3 0-.5-.1-.6 0 0 .1.3.4.7.6l6.1 3.8c.2.1.3.2.4.3.2.2.1.5.2.6.1 0 .4-.3.6-.7l.6-.9c.3-.4.4-.8.3-.9-.1 0-.3.2-.6.2-.1 0-.3-.1-.5-.2l-3.6-2.2c-.4-.3-.6-.8-.3-1.3l4.5-7.2c.1-.2.2-.3.5-.3s.6.1.6.1c0-.1-.3-.4-.7-.6l-1.7-1.1c-.4-.3-.8-.4-.9-.3 0 .1.1.3.3.5.1.2 0 .3-.1.5l-5.4 8.8z"/><linearGradient id="SVGID_17_" gradientUnits="userSpaceOnUse" x1="125.644" y1="54.765" x2="125.644" y2="70.171"><stop offset="0" stop-color="#E1AE65"/><stop offset="1" stop-color="#B78846"/></linearGradient><path class="st16" d="M119 62.8c-.2.2-.3.2-.5.2-.3-.1-.5-.3-.6-.2-.1.1.2.4.5.8l5 5.6c.1.2.2.3.3.4.1.3 0 .5 0 .6.1.1.4-.2.8-.5l.7-.6c.4-.3.6-.7.6-.7-.1-.1-.3 0-.6-.1-.1-.1-.2-.2-.4-.3l-3-3.3c-.3-.4-.3-1 .1-1.3l1.1-1c.4-.3 1-.3 1.3.1l1.4 1.5c.2.2.3.3.3.5v.5c.1.1.4-.2.8-.5l.7-.6c.4-.3.6-.7.6-.7-.1-.1-.3 0-.6-.1-.1-.1-.2-.2-.4-.3l-1.4-1.5c-.3-.4-.3-1 .1-1.3l.9-.8c.4-.3 1-.3 1.3.1l2.7 3.1c.1.2.2.3.3.4.1.2 0 .5.1.6.1.1.4-.2.8-.5l.7-.6c.4-.3.6-.7.6-.7-.1-.1-.3 0-.6-.1-.1-.1-.2-.2-.4-.3l-4.8-5.4c-.3-.4-.7-.6-.7-.6-.1.1.1.3.2.6.1.2 0 .3-.2.5l-7.7 6.5z"/><linearGradient id="SVGID_18_" gradientUnits="userSpaceOnUse" x1="134.563" y1="67.539" x2="134.563" y2="79.255"><stop offset="0" stop-color="#E1AE65"/><stop offset="1" stop-color="#B78846"/></linearGradient><path class="st17" d="M131.9 75.7c2.2-2 5.4-5.2 5.8-5.4.1-.1.2-.1.3 0 .2.1.3.2.4.2.1 0 0-.4-.2-.9l-.6-1.3c-.2-.5-.4-.8-.5-.8-.1 0-.1.3-.3.6-.1.1-.2.3-.4.4-2.3 2-7.7 7.4-7.9 7.5-.1 0-.2 0-.3-.1-.2-.1-.3-.3-.4-.2-.1 0 0 .4.2.9l.8 1.9c.2.5.4.8.5.8.1 0 .1-.2.1-.4 0-.1.1-.2.2-.3.6-.3 6.8-.9 10.7-1.3.3 0 .4-.1.6 0 .3 0 .6.2.7.2.1 0 0-.4-.2-.9l-.5-1.2c-.2-.5-.4-.8-.5-.8-.1 0-.1.2-.1.4s0 .2-.1.3c-.3.1-4.8.6-7.9 1-.5.1-.9.1-.9.1-.2-.1.1-.4.5-.7z"/><linearGradient id="SVGID_19_" gradientUnits="userSpaceOnUse" x1="138.172" y1="83.907" x2="138.172" y2="94.942"><stop offset="0" stop-color="#E1AE65"/><stop offset="1" stop-color="#B78846"/></linearGradient><path class="st18" d="M145 92.9c0-.1-.3-.2-.4-.4-.1-.1-.1-.3-.1-.5l-.9-7.2c-.1-.5-.2-.9-.3-.9-.1 0-.1.3-.2.6-.1.2-.2.3-.4.3l-10.3 1.3c-.2 0-.4 0-.5-.1-.2-.2-.3-.5-.4-.5-.1 0-.1.4 0 .9l1 7.5v.5c0 .3-.3.4-.3.5 0 .1.4.1.9 0l1-.1c.5-.1.9-.2.9-.3 0-.1-.3-.2-.4-.4-.1-.1-.1-.3-.1-.5l-.6-4.4c-.1-.5.3-1 .8-1l1.3-.2c.5-.1 1 .3 1 .8l.3 2.1v.6c0 .1 0 .1-.1.2l-.2.2c0 .1.4.1.9 0l.9-.1c.5-.1.9-.2.9-.3 0-.1-.3-.2-.4-.4-.1-.1-.1-.3-.1-.5l-.3-2.1c-.1-.5.3-1 .8-1l1.2-.2c.5-.1 1 .3 1 .8l.5 4.1v.5c0 .3-.3.4-.3.5 0 .1.4.1.9 0l.9-.1c.7 0 1.1-.1 1.1-.2z"/><linearGradient id="SVGID_20_" gradientUnits="userSpaceOnUse" x1="137.5" y1="98.9" x2="137.5" y2="111.414"><stop offset="0" stop-color="#E1AE65"/><stop offset="1" stop-color="#B78846"/></linearGradient><path class="st19" d="M143.3 104.5c.1 0 .1.1.1.2s.1.3.1.3c.1 0 .2-.4.3-.9l.4-2c.1-.5.1-.9 0-.9s-.2.2-.4.3h-.4l-10.2-1.9c-.2 0-.3-.1-.4-.2-.2-.2-.2-.5-.3-.5-.1 0-.2.4-.3.9l-.2 1.3c-.1.5-.1.9 0 .9s.2-.2.4-.3c.1-.1.2-.1.4 0l7 1.3c.5.1.9.2.9.2s-.4.1-.9.2c-2.7.7-7.8 3-8.2 2.9-.1 0-.2-.1-.2-.2 0-.2-.1-.3-.2-.3s-.2.4-.3.9l-.3 1.5c-.1.5-.1.9 0 .9s.2-.2.4-.3h.4l10.2 1.9c.2 0 .3.1.4.2.2.2.2.4.3.5.1 0 .2-.4.3-.9l.2-1.3c.1-.5.1-.9 0-.9s-.2.2-.4.3c-.1.1-.2.1-.4 0l-6.3-1.2c-.5-.1-.9-.2-.9-.2s.4-.1.9-.2c2.3-.6 7.3-2.6 7.6-2.5z"/><linearGradient id="SVGID_21_" gradientUnits="userSpaceOnUse" x1="88.003" y1="55.831" x2="88.003" y2="110.045"><stop offset="0" stop-color="#E1AE65"/><stop offset="1" stop-color="#B78846"/></linearGradient><path class="st20" d="M88 55.8c-22.1 0-40 17.9-40 40 0 4.9.9 9.7 2.6 14.2.5.2 1.5-.1 1.9-.6-1.6-4.3-2.5-8.9-2.5-13.6 0-21 17-38 38-38s38 17 38 38c0 4.7-.8 9.2-2.4 13.4.6.2 1.3.4 1.9.6 1.6-4.4 2.5-9.1 2.5-14 0-22-17.9-40-40-40z"/><linearGradient id="SVGID_22_" gradientUnits="userSpaceOnUse" x1="76.057" y1="69.173" x2="76.057" y2="81.089"><stop offset="0" stop-color="#E1AE65"/><stop offset="1" stop-color="#B78846"/></linearGradient><path class="st21" d="M79 81.1c.2 0 .4 0 .5-.1.2-.1.4-.4.5-.6.1-.3 0-.5-.1-.8L74 69.7c-.3-.5-.9-.6-1.4-.4-.5.3-.6.9-.4 1.4l5.9 9.9c.2.3.5.5.9.5z"/><linearGradient id="SVGID_23_" gradientUnits="userSpaceOnUse" x1="69.567" y1="73.049" x2="69.567" y2="84.951"><stop offset="0" stop-color="#E1AE65"/><stop offset="1" stop-color="#B78846"/></linearGradient><path class="st22" d="M62.4 73.4c-.2.2-.2.5-.2.7 0 .3.2.5.4.7l12.7 9.9c.2.1.4.2.6.2.3 0 .6-.1.8-.4.2-.2.2-.5.2-.7 0-.3-.2-.5-.4-.7l-12.7-9.9c-.4-.3-1.1-.2-1.4.2z"/><linearGradient id="SVGID_24_" gradientUnits="userSpaceOnUse" x1="67.276" y1="83.627" x2="67.276" y2="89.171"><stop offset="0" stop-color="#E1AE65"/><stop offset="1" stop-color="#B78846"/></linearGradient><path class="st23" d="M59.9 84.4c-.1.5.2 1.1.7 1.2l12.9 3.5h.3c.5 0 .8-.3 1-.7.1-.3 0-.5-.1-.8-.1-.2-.3-.4-.6-.5l-12.9-3.5c-.6-.1-1.2.2-1.3.8z"/><linearGradient id="SVGID_25_" gradientUnits="userSpaceOnUse" x1="88.179" y1="43.482" x2="88.179" y2="47.807"><stop offset="0" stop-color="#E1AE65"/><stop offset="1" stop-color="#B78846"/></linearGradient><path class="st24" d="M88.5 47.7l1.2-1.2c.3-.3.7-.7.7-.8 0-.1 0-.2-.1-.3l-1.7-1.7c-.2-.2-.5-.2-.6 0l-1.7 1.7c-.2.2-.2.5 0 .6l1.7 1.7c0 .2.3.2.5 0z"/><linearGradient id="SVGID_26_" gradientUnits="userSpaceOnUse" x1="54.117" y1="116.061" x2="54.117" y2="129.929"><stop offset="0" stop-color="#E1AE65"/><stop offset="1" stop-color="#B78846"/></linearGradient><path class="st25" d="M54.1 116.1c-3.8 0-6.9 3.1-6.9 6.9 0 3.8 3.1 6.9 6.9 6.9s6.9-3.1 6.9-6.9c.1-3.8-3.1-6.9-6.9-6.9zm-1.2 11.2c.3.4.2.6-.3.5-2-.6-3.5-2.5-3.5-4.8 0-2.2 1.5-4.1 3.5-4.8.5-.2.6.1.3.5-.9 1.1-1.4 2.6-1.4 4.3 0 1.7.5 3.2 1.4 4.3z"/><linearGradient id="SVGID_27_" gradientUnits="userSpaceOnUse" x1="121.44" y1="116.061" x2="121.44" y2="129.929"><stop offset="0" stop-color="#E1AE65"/><stop offset="1" stop-color="#B78846"/></linearGradient><path class="st26" d="M121.4 129.9c3.8 0 6.9-3.1 6.9-6.9 0-3.8-3.1-6.9-6.9-6.9-3.8 0-6.9 3.1-6.9 6.9 0 3.8 3.1 6.9 6.9 6.9zm1.6-11.7c2 .6 3.5 2.5 3.5 4.8 0 2.2-1.5 4.1-3.5 4.8-.5.2-.6-.1-.3-.5.9-1.1 1.4-2.6 1.4-4.3 0-1.7-.5-3.2-1.4-4.3-.3-.4-.2-.6.3-.5z"/><linearGradient id="SVGID_28_" gradientUnits="userSpaceOnUse" x1="68.718" y1="131.67" x2="68.718" y2="145.538"><stop offset="0" stop-color="#E1AE65"/><stop offset="1" stop-color="#B78846"/></linearGradient><path class="st27" d="M68.7 145.5c3.8 0 6.9-3.1 6.9-6.9 0-3.8-3.1-6.9-6.9-6.9-3.8 0-6.9 3.1-6.9 6.9 0 3.8 3.1 6.9 6.9 6.9zm-1.4-11.7c.5-.1.9.2.9.8v8.1c0 .5-.4.9-.9.8-2.1-.6-3.7-2.5-3.7-4.8.1-2.4 1.6-4.3 3.7-4.9z"/><linearGradient id="SVGID_29_" gradientUnits="userSpaceOnUse" x1="107.962" y1="131.67" x2="107.962" y2="145.538"><stop offset="0" stop-color="#E1AE65"/><stop offset="1" stop-color="#B78846"/></linearGradient><path class="st28" d="M108 145.5c3.8 0 6.9-3.1 6.9-6.9 0-3.8-3.1-6.9-6.9-6.9-3.8 0-6.9 3.1-6.9 6.9-.1 3.8 3 6.9 6.9 6.9zm.4-11c0-.5.4-.9.9-.8 2.1.6 3.7 2.5 3.7 4.8s-1.5 4.2-3.7 4.8c-.5.1-.9-.2-.9-.8v-8z"/><linearGradient id="SVGID_30_" gradientUnits="userSpaceOnUse" x1="87.887" y1="139.147" x2="87.887" y2="153.014"><stop offset="0" stop-color="#E1AE65"/><stop offset="1" stop-color="#B78846"/></linearGradient><path class="st29" d="M87.9 139.1c-3.8 0-6.9 3.1-6.9 6.9s3.1 6.9 6.9 6.9 6.9-3.1 6.9-6.9-3.1-6.9-6.9-6.9z"/><linearGradient id="SVGID_31_" gradientUnits="userSpaceOnUse" x1="88.141" x2="88.141" y2="32.581"><stop offset="0" stop-color="#E1AE65"/><stop offset="1" stop-color="#B78846"/></linearGradient><path class="st30" d="M71.3 26.6c.1.3.2.7.2 1v4.3c0 .4.3.7.7.7h31.9c.4 0 .7-.3.7-.7v-4.3c0-.3.1-.8.2-1l4.6-12.1c.1-.4 0-.8-.4-.9l-.6-.2c-.3-.1-.8.1-.9.4l-1.5 3.9c0 .1-.1.1-.1.1s-.1 0-.1-.1c-3.4-6.1-9.5-10-16.5-10.4-.2 0-.4-.2-.4-.5v-.4c0-.3.1-.7.3-1 .4-.6.9-1 1.4-1.3.1-.1.2-.2.2-.3 0-.1-.1-.3-.2-.3-1-.5-1.8-1.7-2.2-3.2 0-.2-.2-.3-.4-.3s-.3.1-.4.3c-.4 1.5-1.2 2.7-2.1 3.2-.1.1-.2.2-.2.4s.1.3.2.4c.5.2.9.7 1.3 1.2.2.2.3.7.3 1v.4c0 .2-.2.4-.4.5-6.9.5-13.1 4.4-16.5 10.4l-.1.1s-.1 0-.1-.1l-1.5-3.9c-.1-.3-.5-.5-.9-.4l-.6.2c-.4.1-.5.5-.4.9l4.5 12zm1.8-1.2l-.8-2.1V23c0-.1.1-.1.2-.1h10.4c.3 0 .7.2.9.4l2.4 2.4.1.1H73.7c-.3 0-.6-.2-.6-.4zm17.5-3.6c.1.1.1.2.1.3 0 .2-.5.6-.7.9l-1.5 1.5c-.2.2-.4.2-.6 0l-2.1-2.1c-.1-.1-.1-.2-.1-.3s0-.2.1-.3l2.1-2.1c.1-.1.2-.1.3-.1.1 0 .2 0 .3.1l2.1 2.1zM89.2 17v-2.3c0-.2.2-.4.4-.4 4.1.4 7.8 2.7 9.9 6.3.1.1.1.2 0 .2 0 .1-.1.1-.2.1h-6.2c-.3 0-.7-.2-.9-.4l-2.7-2.7c-.2-.2-.3-.6-.3-.8zm-2.1 0c0 .3-.2.7-.4.9L84.6 20c-.3.3-.8.8-1.1.9-.2.1-.3.1-.5.1h-6.2c-.1 0-.2 0-.2-.1v-.2c2.1-3.5 5.9-5.9 9.9-6.3.2 0 .4.2.4.4V17zm15.6 13.1c0 .2-.2.4-.4.4H74c-.2 0-.4-.2-.4-.4v-1.8c0-.2.2-.4.4-.4h28.3c.2 0 .4.2.4.4v1.8zm1.3-6.8l-.8 2.1c-.1.2-.4.4-.6.4H90.1s0-.1.1-.1l2.4-2.4c.2-.2.6-.4.9-.4h10.4c.1 0 .2 0 .2.1s0 .2-.1.3zm-1.1-6.5c.1 0 .2.1.3.1.7 1 1.3 2 1.8 3.1.1.3.2.6.1.7 0 0-.2.2-.5.2h-2c-.3 0-.6-.2-.7-.4-.2-.4-.5-.8-.7-1.2-.1-.2-.1-.5.1-.7l1.5-1.6c-.1-.1 0-.2.1-.2zm-5.6-2.2l1-1.9c.1-.1.2-.2.3-.2.1 0 .1 0 .2.1.9.6 1.8 1.4 2.5 2.2.2.2.2.5 0 .6l-1.5 1.5c-.2.2-.4.2-.6 0-.6-.6-1.2-1.1-1.8-1.6-.2-.2-.2-.5-.1-.7zm-5-4.5c0-.2.2-.3.4-.3h.1c1.2.3 2.4.7 3.5 1.3.1 0 .2.1.2.2v.3l-1 1.9c-.1.2-.4.3-.6.2-.8-.4-1.7-.8-2.6-1-.2-.1-.4-.3-.3-.5l.3-2.1zm-6.2-.6c.1-.1.2-.1.3-.1 1.3-.1 2.3-.1 3.6 0 .1 0 .2.1.3.2.1.1.1.2.1.3L90 12c0 .2-.3.4-.5.4-.4 0-.8-.1-1.2-.1-.4 0-.8 0-1.2.1-.3 0-.5-.2-.5-.4L86 9.8c0-.1 0-.2.1-.3zm-6.3 1.8c0-.1.1-.2.2-.2 1.1-.6 2.3-1 3.5-1.3h.1c.2 0 .3.1.4.3l.4 2.1c0 .2-.1.5-.3.5-.9.2-1.8.6-2.6 1-.2.1-.5 0-.6-.2l-1-1.9c-.1 0-.1-.1-.1-.3zM75 14.7c.8-.8 1.6-1.5 2.5-2.2.1 0 .1-.1.2-.1s.3.1.3.2l1 1.9c.1.2 0 .5-.2.7-.7.5-1.3 1-1.8 1.6-.2.2-.4.2-.6 0L75 15.4c-.2-.2-.2-.5 0-.7zm-3.6 5.4c.5-1.1 1.1-2.1 1.8-3.1.1-.1.2-.1.3-.1.1 0 .2 0 .2.1l1.5 1.6c.2.2.2.5.1.7-.3.4-.5.8-.7 1.3-.1.2-.4.4-.7.4h-2c-.3 0-.5-.1-.5-.2-.2-.1-.1-.4 0-.7z"/><linearGradient id="SVGID_32_" gradientUnits="userSpaceOnUse" x1="14.201" y1="112.439" x2="14.201" y2="120.633"><stop offset="0" stop-color="#E1AE65"/><stop offset="1" stop-color="#B78846"/></linearGradient><path class="st31" d="M18.5 112.7c.1.2 0 .4-.2.5-.5.1-5.3-.2-8.4-.4-.5 0-.7 0-.8-.3l-.2.1.6 2.4.2-.1c0-.3 0-.4.1-.5.3-.1 4.5.2 6.9.3-1.9 1.1-5.4 3.6-5.8 3.7-.2 0-.3 0-.4-.3l-.2.1.6 2.5.2-.1c0-.2.3-.4.6-.6 2-1.2 6.8-4.6 7-4.7.1 0 .3.1.4.3l.2-.1-.8-2.9v.1z"/><linearGradient id="SVGID_33_" gradientUnits="userSpaceOnUse" x1="12.682" y1="103.636" x2="12.682" y2="107.868"><stop offset="0" stop-color="#E1AE65"/><stop offset="1" stop-color="#B78846"/></linearGradient><path class="st32" d="M17.3 106.7h.3l-.4-3h-.3c0 .5-.1.6-.4.7l-8 1c-.3 0-.4 0-.5-.6h-.3l.4 3h.3c0-.5.1-.6.4-.7l8-1c.3 0 .4.1.5.6z"/><linearGradient id="SVGID_34_" gradientUnits="userSpaceOnUse" x1="12.083" y1="96.392" x2="12.083" y2="99.695"><stop offset="0" stop-color="#E1AE65"/><stop offset="1" stop-color="#B78846"/></linearGradient><path class="st33" d="M16.1 98.8c.3 0 .4.1.5.6h.3l-.1-3h-.3c0 .5-.1.6-.5.6l-8 .3c-.3 0-.4-.1-.5-.6h-.3l.1 3h.3c0-.5.1-.6.5-.6l8-.3z"/><linearGradient id="SVGID_35_" gradientUnits="userSpaceOnUse" x1="12.258" y1="88.448" x2="12.258" y2="92.18"><stop offset="0" stop-color="#E1AE65"/><stop offset="1" stop-color="#B78846"/></linearGradient><path class="st34" d="M8.2 90.9l8.1.6c.3 0 .4.1.4.6h.3l.2-3h-.3c-.1.5-.2.6-.5.6l-8.1-.6c-.3 0-.4-.1-.4-.6h-.3l-.2 3h.3c0-.5.2-.6.5-.6z"/><linearGradient id="SVGID_36_" gradientUnits="userSpaceOnUse" x1="17.647" y1="62.311" x2="17.647" y2="73.313"><stop offset="0" stop-color="#E1AE65"/><stop offset="1" stop-color="#B78846"/></linearGradient><path class="st35" d="M21.3 70.6c-.1.2-.2.3-.4.2-.2-.1-1.3-1.4-1.9-2.5.4 0 3-.5 3.1-.5.2.1.2.3.1.4l.2.1 1.1-2.7-.2-.1c-.1.1-.2.3-.3.3l-5.3.8c-1-1.1-1.9-2.5-2.7-3.7-.2-.2-.2-.4-.1-.6l-.2-.1-1.1 2.6.2.1c.1-.3.2-.4.4-.3.2.1.9 1.4 1.7 2.3-.6.1-2.6.5-2.9.4V67l-.2-.1-1.2 2.8.2.1c.1-.2.3-.4.6-.4l4.7-.7 2.9 4c.2.2.1.5.1.6l.2.1 1.1-2.6-.1-.2z"/><linearGradient id="SVGID_37_" gradientUnits="userSpaceOnUse" x1="23.155" y1="51.373" x2="23.155" y2="63.184"><stop offset="0" stop-color="#E1AE65"/><stop offset="1" stop-color="#B78846"/></linearGradient><path class="st36" d="M17.8 57.9l4.8.1 2.2 4.4c.1.2 0 .5 0 .6l.2.1 1.5-2.4-.2-.1c-.1.2-.3.3-.4.2-.2-.1-1-1.6-1.4-2.8.4.1 3 0 3.2.1.2.1.1.3 0 .5l.2.1 1.6-2.5-.3-.2c-.1.1-.2.3-.4.3l-5.3-.1c-.8-1.2-1.5-2.8-2.1-4.1-.1-.3-.1-.4 0-.6l-.2-.1-1.5 2.4.2.1c.2-.2.3-.3.4-.3.2.1.7 1.5 1.3 2.6-.6 0-2.7 0-2.9-.1-.1-.1-.1-.2 0-.4l-.2-.1-1.6 2.5.2.1c.2-.2.4-.3.7-.3z"/><linearGradient id="SVGID_38_" gradientUnits="userSpaceOnUse" x1="30.34" y1="41.687" x2="30.34" y2="53.957"><stop offset="0" stop-color="#E1AE65"/><stop offset="1" stop-color="#B78846"/></linearGradient><path class="st37" d="M24.9 47.6l4.7.9 1.4 4.7c.1.3 0 .5-.1.6l.2.2 1.9-2.1-.2-.2c-.2.2-.3.2-.5.1-.2-.2-.7-1.8-1-3 .4.1 3 .5 3.1.6.2.2 0 .4 0 .5l.2.2 2-2.2-.2-.2c-.1.1-.3.3-.4.2l-5.3-1c-.6-1.3-1-3-1.4-4.4-.1-.3-.1-.4.1-.6l-.2-.2-1.9 2.1.2.2c.2-.2.3-.3.5-.2.1.1.4 1.6.9 2.8-.6-.1-2.7-.4-2.8-.6-.1-.1-.1-.2.1-.4l-.2-.3-2 2.2.2.2c.2-.1.5-.2.7-.1z"/><linearGradient id="SVGID_39_" gradientUnits="userSpaceOnUse" x1="37.378" y1="36.259" x2="37.378" y2="45.499"><stop offset="0" stop-color="#E1AE65"/><stop offset="1" stop-color="#B78846"/></linearGradient><path class="st38" d="M34.1 38.4l5.2 6.2c.2.2.2.4-.2.8l.2.2 2.3-2-.2-.2c-.4.3-.6.3-.8 0l-5.2-6.2c-.2-.2-.2-.4.2-.8l-.2-.2-2.3 2 .2.2c.4-.3.6-.3.8 0z"/><linearGradient id="SVGID_40_" gradientUnits="userSpaceOnUse" x1="141.413" y1="35.848" x2="141.413" y2="49.752"><stop offset="0" stop-color="#E1AE65"/><stop offset="1" stop-color="#B78846"/></linearGradient><path class="st39" d="M142.1 49l5.6-6.1c.2-.2.3-.2.5 0l.2-.2-2.3-2.1-.2.2c.1.2.1.3 0 .4-.2.2-3 1.4-5.2 2.5.4-1 1.8-5.2 2.1-5.4.1-.1.2-.1.4 0l.2-.2-2.4-2.2-.2.2c.2.2.2.3 0 .5l-5.6 6.1c-.2.2-.3.2-.5 0l-.2.2 1.8 1.7.2-.2c-.2-.2-.2-.4-.1-.6l4.5-4.9c-1.1 2.3-1.9 4.9-2.8 7.2l.2.2c2.3-1.2 4.8-2.2 7.1-3.4l-4.5 5c-.2.2-.3.2-.6 0l-.2.2 1.9 1.7.2-.2c-.3-.3-.3-.4-.1-.6z"/><linearGradient id="SVGID_41_" gradientUnits="userSpaceOnUse" x1="150.908" y1="46.444" x2="150.908" y2="60.285"><stop offset="0" stop-color="#E1AE65"/><stop offset="1" stop-color="#B78846"/></linearGradient><path class="st40" d="M157 54.7c.2-.1.4-.1.5.1l.2-.1-1.9-2.6-.2.1c.1.2.1.3-.1.4-.2.2-3.2.8-5.6 1.4.6-.9 2.8-4.7 3.1-4.9.1-.1.2 0 .4.1l.2-.2-1.9-2.6-.2.1c.1.2.1.4-.1.5l-6.7 4.9c-.2.1-.4.1-.5-.1l-.2.1 1.5 2 .2-.1c-.2-.3-.2-.4 0-.6l5.3-3.9c-1.6 2.1-2.8 4.4-4.2 6.5l.2.2c2.5-.7 5.1-1.2 7.6-2l-5.4 4c-.2.1-.3.1-.5-.1l-.2.2 1.5 2 .2-.1c-.2-.3-.2-.4 0-.6l6.8-4.7z"/><linearGradient id="SVGID_42_" gradientUnits="userSpaceOnUse" x1="158.06" y1="58.329" x2="158.06" y2="67.677"><stop offset="0" stop-color="#E1AE65"/><stop offset="1" stop-color="#B78846"/></linearGradient><path class="st41" d="M163.4 66l.2-.1-1.1-2.2-.2.1c.1.3.1.4 0 .5-.2.1-4.5.7-6.8 1 1.6-1.5 4.6-4.6 4.9-4.8.1-.1.3 0 .4.2l.2-.1-1.1-2.3-.2.1c0 .2-.2.5-.5.7-1.8 1.6-5.8 5.9-6 6-.1.1-.3 0-.5-.3l-.2.1 1.3 2.7.2-.1c-.1-.2-.1-.4.1-.5.4-.2 5.2-.8 8.3-1.2.5 0 .7 0 1 .2z"/><linearGradient id="SVGID_43_" gradientUnits="userSpaceOnUse" x1="160.892" y1="69.64" x2="160.892" y2="75.554"><stop offset="0" stop-color="#E1AE65"/><stop offset="1" stop-color="#B78846"/></linearGradient><path class="st42" d="M157.4 74.7l7.7-2.6c.3-.1.4 0 .6.4l.2-.1-1-2.9-.2.1c.1.5 0 .6-.3.7l-7.7 2.6c-.3.1-.4 0-.6-.4l-.2.1 1 2.9.2-.1c-.1-.4 0-.6.3-.7z"/><linearGradient id="SVGID_44_" gradientUnits="userSpaceOnUse" x1="162.793" y1="76.791" x2="162.793" y2="81.888"><stop offset="0" stop-color="#E1AE65"/><stop offset="1" stop-color="#B78846"/></linearGradient><path class="st43" d="M158.1 78.9l-.2.1.7 3 .2-.1c-.1-.5 0-.6.3-.7l7.9-1.8c.3-.1.4 0 .6.5l.2-.1-.7-3-.2.1c.1.5 0 .6-.3.7l-7.9 1.8c-.3 0-.5 0-.6-.5z"/><linearGradient id="SVGID_45_" gradientUnits="userSpaceOnUse" x1="47.194" y1="154.53" x2="47.194" y2="165.116"><stop offset="0" stop-color="#E1AE65"/><stop offset="1" stop-color="#B78846"/></linearGradient><path class="st44" d="M50.4 160.3l.2.1 1.2-1.8-.2-.1c-.2.2-.3.2-.7-.1l-4.9-3.2c-.3-.2-.4-.3-.3-.6l-.2-.1-1.2 1.8.2.1c.2-.3.4-.2.7 0l1.7 1.1-3.8 5.8c-.2.2-.3.3-.5.2l-.1.2 2.1 1.3.1-.2c-.2-.2-.3-.4-.1-.6l3.8-5.8 1.7 1.1c.4.3.5.5.3.8z"/><linearGradient id="SVGID_46_" gradientUnits="userSpaceOnUse" x1="55.056" y1="160.174" x2="55.056" y2="171.559"><stop offset="0" stop-color="#E1AE65"/><stop offset="1" stop-color="#B78846"/></linearGradient><path class="st45" d="M57.9 162l-3.9-1.8-.1.2c.3.2.3.3.2.6l-3.2 7c-.1.3-.2.3-.5.2l-.1.2 2.3 1.1.1-.2c-.3-.2-.3-.3-.2-.6l1.3-2.8 1.4.7.1 3.1v.6c-.1.1-.2.1-.4.1l-.1.2 2.3 1.1.1-.2c-.3-.2-.2-.5-.3-1.4l-.1-2.9c1.3.3 2.3-.3 2.8-1.5.7-1.6 0-2.9-1.7-3.7zm.1 2.9c-.3.7-.9.9-1.9.5l-1.8-.8 1-2.2 1.8.8c1 .5 1.2 1.1.9 1.7z"/><linearGradient id="SVGID_47_" gradientUnits="userSpaceOnUse" x1="64.423" y1="164.978" x2="64.423" y2="175.239"><stop offset="0" stop-color="#E1AE65"/><stop offset="1" stop-color="#B78846"/></linearGradient><path class="st46" d="M68.2 174.5l-.3-7.6v-.7c0-.2.2-.2.4-.2l.1-.2-2.8-.8-.1.2c.3.1.3.2.3.3 0 .1-.1.2-.3.5l-4.5 6.3c-.1.1-.2.3-.5.3l-.1.2 2.2.7.1-.2c-.3-.1-.3-.3-.3-.4 0-.1.1-.2.2-.3l.9-1.2 3 .9.1 1.7v.3c0 .1-.1.1-.4.1l-.1.2 2.2.7.1-.2c-.2-.2-.2-.3-.2-.6zm-4-4.2l2.1-3.1v3.8l-2.1-.7z"/><linearGradient id="SVGID_48_" gradientUnits="userSpaceOnUse" x1="76.067" y1="167.053" x2="76.067" y2="176.603"><stop offset="0" stop-color="#E1AE65"/><stop offset="1" stop-color="#B78846"/></linearGradient><path class="st47" d="M76.9 167.6l-3.7-.6v.2c.3.1.4.2.3.5l-1.2 7.6c0 .3-.1.4-.5.4v.2l3.4.5c2.9.4 4.7-.8 5.1-3.8.4-2.4-.6-4.6-3.4-5zm1.7 4.9c-.4 2.3-1.3 2.9-3.5 2.6l-1-.1.9-6.1 1 .1c2.3.3 3 1.1 2.6 3.5z"/><linearGradient id="SVGID_49_" gradientUnits="userSpaceOnUse" x1="87.009" y1="168.201" x2="87.009" y2="177.877"><stop offset="0" stop-color="#E1AE65"/><stop offset="1" stop-color="#B78846"/></linearGradient><path class="st48" d="M89.7 176.1l-4-.1v-2.5h2.2c.2 0 .3 0 .4.1.1 0 .1.1.2.2h.2v-2h-.2c-.1.3-.2.3-.6.3h-2.2v-2.2l3.7.1c.4 0 .5.1.6.3h.2v-2H90c-.1.3-.2.3-.6.3l-6-.1v.2c.5.1.6.2.6.5l-.1 7.7c0 .3-.1.4-.6.4v.2l6.2.1c.4 0 .5.1.6.3h.2v-2.1h-.2c.2.3 0 .3-.4.3z"/><linearGradient id="SVGID_50_" gradientUnits="userSpaceOnUse" x1="98.87" y1="167.082" x2="98.87" y2="177.391"><stop offset="0" stop-color="#E1AE65"/><stop offset="1" stop-color="#B78846"/></linearGradient><path class="st49" d="M103.8 175.5l-1.1-7.8c0-.2.1-.3.3-.4v-.2l-3 .4v.2c.2 0 .3.1.3.2 0 .2-.8 3-1.3 5.3-.5-.9-2.7-4.5-2.7-4.8 0-.1.1-.2.2-.3v-.2l-3 .4v.2c.2 0 .4.1.4.3l1.1 7.8c0 .2-.1.3-.3.4v.2l2.3-.3v-.2c-.3 0-.4-.1-.5-.3l-.9-6.2c1 2.2 2.4 4.3 3.6 6.4h.3c.6-2.4 1.3-4.8 1.8-7.3l.9 6.3c0 .2-.1.3-.4.4v.2l2.4-.3v-.2c-.2.1-.4 0-.4-.2z"/><linearGradient id="SVGID_51_" gradientUnits="userSpaceOnUse" x1="111.725" y1="164.937" x2="111.725" y2="175.201"><stop offset="0" stop-color="#E1AE65"/><stop offset="1" stop-color="#B78846"/></linearGradient><path class="st50" d="M115.2 172.3l-4.4-6.1c-.3-.4-.4-.5-.4-.6-.1-.2 0-.3.3-.4l-.1-.2-2.8.8.1.2c.3-.1.4 0 .4.1v.6l-.3 7.8c0 .1 0 .4-.2.5l.1.2 2.2-.7-.1-.2c-.3.1-.4-.1-.5-.2v-1.8l3-.9 1 1.4c.1.1.1.2.2.3 0 .1 0 .2-.2.3l.1.2 2.2-.7-.1-.2c-.3-.1-.4-.1-.5-.4zm-5.6-1.3v-3.8l2.1 3.1-2.1.7z"/><linearGradient id="SVGID_52_" gradientUnits="userSpaceOnUse" x1="120.59" y1="161.07" x2="120.59" y2="171.488"><stop offset="0" stop-color="#E1AE65"/><stop offset="1" stop-color="#B78846"/></linearGradient><path class="st51" d="M124.6 167.4l-2.3-1.8c1.1-.8 1.2-2 .7-3.1-.7-1.4-2.1-1.8-3.8-1l-3.9 1.8.1.2c.3-.1.4 0 .6.2l3.2 7c.1.3.1.4-.2.6l.1.2 2.3-1.1-.1-.2c-.3.1-.4 0-.6-.2l-1.3-2.8 1.4-.7 2.5 1.9c.3.2.4.3.4.4.1.1-.1.3-.2.3l.1.2 2.3-1.1-.1-.2c-.3.2-.5 0-1.2-.6zm-4-2.3l-1.8.8-1-2.2 1.8-.8c1-.4 1.5-.2 1.9.5.3.6.1 1.2-.9 1.7z"/><linearGradient id="SVGID_53_" gradientUnits="userSpaceOnUse" x1="130.373" y1="154.537" x2="130.373" y2="166.272"><stop offset="0" stop-color="#E1AE65"/><stop offset="1" stop-color="#B78846"/></linearGradient><path class="st52" d="M134.2 161.3l-4.1-1.9.7-4.2c0-.2.1-.3.3-.5l-.1-.2-2.3 1.5.1.2c.1 0 .2 0 .3.1.1.1-.5 2.7-.7 4.2h-.1l-1.6-2.4c-.2-.2-.1-.4.1-.6l-.1-.2-2.2 1.4.1.2c.3-.2.5-.1.6.1l4.2 6.4c.2.2.1.4-.1.6l.1.2 2.2-1.4-.1-.2c-.3.2-.5.1-.6-.1l-1.4-2.2.2-1.2c2.6 1.2 3.9 1.7 4 1.9.1.1.1.2 0 .3l.1.2 2.2-1.4-.1-.2c-.3.1-.8-.2-1.7-.6z"/><linearGradient id="SVGID_54_" gradientUnits="userSpaceOnUse" x1="14.477" y1="77.442" x2="14.477" y2="81.614"><stop offset="0" stop-color="#E1AE65"/><stop offset="1" stop-color="#B78846"/></linearGradient><path class="st53" d="M14.2 81.6l2.1-1.1c.2-.1.3-.4.2-.6l-.8-1.5c-.2-.4-.4-.8-.6-.9h-.3l-2.1 1.1c-.2.1-.3.4-.2.6l1.1 2.1c.1.3.4.4.6.3z"/><linearGradient id="SVGID_55_" gradientUnits="userSpaceOnUse" x1="35.373" y1="134.965" x2="35.373" y2="138.38"><stop offset="0" stop-color="#E1AE65"/><stop offset="1" stop-color="#B78846"/></linearGradient><path class="st54" d="M36.5 138.4c.2 0 .5-.2.5-.4l.1-1.7c0-.4 0-.9-.1-1.1-.1-.1-.2-.1-.3-.1l-2.4-.1c-.2 0-.5.2-.5.4l-.1 2.4c0 .2.2.5.4.5l2.4.1z"/><linearGradient id="SVGID_56_" gradientUnits="userSpaceOnUse" x1="140.642" y1="134.9" x2="140.642" y2="138.444"><stop offset="0" stop-color="#E1AE65"/><stop offset="1" stop-color="#B78846"/></linearGradient><path class="st55" d="M142 135c-.1-.1-.2-.1-.3-.1l-2.4.2c-.2 0-.4.2-.4.5l.2 2.4c0 .2.2.4.5.4l2.4-.2c.2 0 .4-.2.4-.5l-.2-1.7c0-.4 0-.9-.2-1z"/><linearGradient id="SVGID_57_" gradientUnits="userSpaceOnUse" x1="164.035" y1="88.9" x2="164.035" y2="93.225"><stop offset="0" stop-color="#E1AE65"/><stop offset="1" stop-color="#B78846"/></linearGradient><path class="st56" d="M164 88.9c-.1 0-.2.1-.3.1l-1.7 1.8c-.2.2-.2.5 0 .6l1.8 1.7c.2.2.5.2.6 0l1.7-1.8c.2-.2.2-.5 0-.6l-1.2-1.1c-.4-.3-.7-.7-.9-.7z"/><linearGradient id="SVGID_58_" gradientUnits="userSpaceOnUse" x1="88.2" y1="10.706" x2="88.2" y2="184.697"><stop offset="0" stop-color="#E1AE65"/><stop offset="1" stop-color="#B78846"/></linearGradient><path class="st57" d="M148.4 32c-5-4.4-9.3-5.7-13.1-6.8-1.9-.6-3.6-1.1-5.2-1.9-.3-.2-.4-.5-.1-.8l3.4-3.1.3-.3c1.3-1.3 1.3-4-1-6.4-1.6-1.7-3.8-2.4-5.9-1.8-.7.2-1.4.5-2 .9-.3.2-.5.4-.6.4h-.1l-.1.1-13.8 12.4-.1.1c-2.7 3-2.7 7 0 10.2 2.2 2.6 5.6 4 9.2 5.5 2.9 1.2 6 2.5 8.7 4.5 16 12.1 25.1 30.9 25.1 51.4 0 7.5-1.3 14.8-3.8 21.8-.1.3-.5.5-.8.4l-5-1.9c-2.6-1.1-4.8 2-6.9 5.6-2.8 5.3-6.4 10.1-10.5 14-.9.7-1.7 1.4-2.5 2.2l-.5.5-.5.5c-1.5 1.7-2.3 3.4-1.5 4.8.2.3.5.8.7 1.1.7.9 2.2 2.9 2.9 3.8.2.3.2.7-.1.9-10.5 7.4-23.3 11.4-36.7 11.4-13.4 0-26.1-4-36.7-11.4-.3-.2-.4-.6-.1-.9l3.3-4.3c1.3-1.6.5-3.5-1.2-5.4-.2-.3-.5-.5-.5-.5l-.5-.5c-.8-.7-1.6-1.5-2.5-2.2-4.1-3.9-7.6-8.7-10.5-14.1-1.9-3.4-3.9-6.3-6.2-5.8-.4.1-.9.3-1.2.4-1.1.4-3.3 1.3-4.4 1.7-.3.1-.7 0-.8-.4-2.5-7-3.8-14.3-3.8-21.8 0-20.5 9.2-39.3 25.1-51.4 2.8-2 5.8-3.3 8.8-4.5 3.6-1.5 6.9-2.9 9.2-5.5 2.6-3 2.7-6.7.5-9.7-.2-.3-.6-.7-.9-.9L52.3 12.4l-.1-.1-.2-.1c-.7-.6-1.6-1.1-2.5-1.3-2.1-.5-4.3.1-5.9 1.8-2.3 2.5-2.3 5.1-1 6.4l.3.3 3.5 3.2c.3.2.2.6-.1.8-1.7 1-3.4 1.5-5.4 2-3.5.9-7.5 2-13 6.7C10.2 48.7 0 72.2 0 96.5c0 14.2 3.3 27.8 9.7 40.3.6 1.1 1.6 1.9 2.8 2.3.5.1.9.2 1.4.2.8 0 1.5-.2 2.2-.6l4.7-2.5c.3-.2.7-.1.9.3 3 4.9 6.4 9.5 10.4 13.6.2.3.2.7 0 .9l-5 4.8c-.6.6-.9 1.3-.9 2.1s.3 1.6.9 2.1c16.5 15.8 38.2 24.6 61.1 24.6s44.6-8.7 61.1-24.6c.6-.6.9-1.3.9-2.1s-.3-1.6-.9-2.2l-5-4.8c-.3-.3-.3-.7 0-.9 4-4.1 7.5-8.7 10.4-13.6.2-.3.6-.4.9-.3l4.7 2.5c.7.4 1.5.6 2.2.6.5 0 .9-.1 1.4-.2 1.2-.4 2.2-1.2 2.8-2.3 6.5-12.6 9.7-26.1 9.7-40.3 0-24.2-10.2-47.7-28-64.4zm-23.5-16.4c.2-.6.5-1.1.9-1.5l.2-.1c.4-.4.9-.7 1.5-.8.2-.1.5-.1.8-.1.8 0 1.8.3 2.7 1.3 1.3 1.4 1.4 2.7 1 3.1-.4.4-1.7.4-3.7-1.3 0 0-.2-.2-.4-.3-.2-.2-.6-.2-.9.1l-1.6 1.5c-.3.2-.6.2-.6-.2-.1-.6 0-1.2.1-1.7zm4.2 4.6l-1 .9c-.3.2-.7.3-.9 0l-.4-.4-.3-.3c-.2-.2-.1-.6.2-.8l.5-.5c.3-.2.7-.3 1-.1.3.2.5.3.8.5.3.1.4.4.1.7zm15.5 103.1c.2-.9.5-1.8.6-2.7.1-.4.3-.5.7-.4l1.9.7c.3.1.5.5.4.8-.3.7-.6 1.3-.9 2-2.1 4.2-3 3.9-3 3.9-.7-.4-.1-2.6.3-4.3zm-116.1-2.4l1.9-.7c.3-.1.6.1.7.4.1.9.4 1.8.6 2.7.3 1.3.8 2.9.6 3.8-.1.4-.6.5-.9.3-.5-.4-1.3-1.3-2.4-3.6-.3-.7-.6-1.4-.9-2-.1-.4.1-.8.4-.9zM44.4 17.5c-.4-.4-.3-1.8 1-3.1 1.4-1.4 2.8-1.3 3.6-1.2.6.1 1.1.4 1.5.8l.1.1c.4.4.7.9.9 1.5.1.5.2 1 .1 1.6-.1.4-.4.4-.6.2l-1.7-1.5c-.3-.2-.7-.3-.9-.1l-.4.4c-1.9 1.7-3.3 1.7-3.6 1.3zm5.6 2.9l-.3.3-.4.4c-.2.2-.7.2-.9 0l-1-.9c-.3-.2-.2-.5.1-.7.3-.1.5-.3.8-.5.3-.2.8-.2 1 .1l.5.5c.3.2.3.6.2.8zm-28.3 112c-.5-.5-1.2-1.5-2.2-3.4-.8-1.8-1.6-3.6-2.2-5.5-.1-.3-.5-.5-.8-.4l-.6.2c-.3.1-.5.5-.4.8.7 1.9 1.5 3.8 2.3 5.7.5.9 1.2 2.4 2.2 3.5.2.3.2.6-.1.8l-1.3.7c-.3.2-.9.3-1.2 0-.5-.4-1.4-1.4-2.5-3.7-.8-1.8-1.6-3.7-2.3-5.6-.1-.3-.5-.5-.8-.4l-.6.2c-.3.1-.5.5-.4.8.7 2 1.5 3.9 2.4 5.8.5 1 1.3 2.6 2.4 3.7.2.3.3.6 0 .7l-.4.2c-.5.3-1.2.4-1.7.2-.6-.2-1-.6-1.3-1.1-6.3-12.2-9.5-25.4-9.5-39.2 0-23.6 9.9-46.5 27.1-62.6 5.1-4.3 8.6-5.3 12-6.2 3.2-.9 6.3-1.7 9.9-5.3 1.6-1.6 2.3-3.2 2.6-4.5.1-.4.3-.5.6-.2l1.1 1c.3.2.5.7.5 1.1-.1 1.1-.5 2.5-1.9 4.1-2.7 3.4-6 4.3-9.5 5.3-1.6.5-3.3.9-5 1.7-.3.2-.4.5-.2.8l.5.6c.2.3.7.4 1 .2 1.3-.6 2.7-1 4.1-1.4 3.6-1 7.4-2.1 10.5-5.9 1.1-1.4 1.7-2.6 2-3.7.1-.3.4-.4.6-.2l1.1 1c.3.2.5.7.4 1.1-.2 1.1-.8 2.4-1.8 3.6-2.7 3.3-5.7 4.2-9 5.2-2 .6-4.1 1.3-6.1 2.5-.3.2-.4.6-.1.8l.5.5c.2.3.7.3 1 .2 1.7-1 3.5-1.5 5.4-2.1 3.4-1 6.9-2.1 9.9-5.9.8-1 1.5-2.2 1.9-3.4.1-.3.4-.4.7-.2l.8.8c.3.2.5.7.4 1.1-.3 1.1-.9 2.2-1.8 3.4-2.6 3.3-5.3 4.2-8.4 5.3-2.2.8-4.5 1.6-6.9 3.3-.6.2-.6.6-.4.9l.5.5c.2.3.7.3 1 .1 2.1-1.5 4.2-2.2 6.3-2.9 3.1-1.1 6.3-2.2 9.3-5.9.7-.9 1.3-1.9 1.7-2.8.1-.3.4-.4.5 0 .7 1.7.3 3.6-1.1 5.3-1.8 2.1-4.8 3.4-8.3 4.8-2.9 1.2-6.2 2.6-9.3 4.8-16.6 12.6-26.1 32-26.1 53.3 0 9.9 2.1 19.4 6.2 28.3.5.9 1.2 2.4 2.2 3.6.2.3.2.6-.1.8l-1.1.6c-.3.2-.8.2-1.1-.1-.5-.5-1.3-1.5-2.3-3.5-.7-1.5-1.3-3.1-1.9-4.6-.1-.3-.5-.5-.8-.4l-.6.2c-.3.1-.5.5-.4.8.6 1.6 1.3 3.2 2 4.8.5.9 1.2 2.5 2.2 3.6.2.3.2.6-.1.8l-2 1c-.4.2-.9.2-1.2 0zm2.1 3c-.2-.3-.1-.7.2-.9l8.3-4.4c.3-.2.6-.3.7-.3h.1c2.5-1.3 1.7-4.5 1-7.1-.3-1.1-.9-3.5-.5-3.7.2-.1 1.3-.1 4.3 5.6 2.7 4.9 6.1 9.4 9.9 13.1l.5.5.1.1c.8.7 1.5 1.4 2.3 2.1.3.2.7.6.9.9 1.5 1.7 1.2 2.3 1.1 2.3-.3.4-2.6-.9-3.5-1.4-2.1-1.2-4.6-2.5-6.4-1.5-.3.2-.7.6-1 .8-1.4 1.4-5.7 5.5-7.1 6.9-.3.3-.7.2-.9 0-3.8-3.9-7.2-8.3-10-13zm26.9 10.9l-1.3 1.7c-.2.3-.6.3-.9.1-1.1-.8-2.1-1.7-3.1-2.6-1-1-1.5-1.8-1.5-2.3v-.2c.5-.7 2.6.5 4.2 1.4.8.4 1.6.9 2.4 1.2.3.1.4.4.2.7zm94.8 10.1c.2-.3.5-.4.8-.1l1.3 1.3c.2.2.2.3.2.4 0 .1 0 .3-.2.4-16.1 15.4-37.2 23.9-59.4 23.9-22.3 0-43.4-8.5-59.4-23.9-.1-.1-.2-.3-.2-.4 0-.1 0-.3.2-.4l1.8-1.7c.3-.3.6-.2.8.1.8 1.4 2.2 2.6 3 3.4.3.2.6.5.9.7.3.2.7.2.9-.1l.4-.5c.2-.3.2-.7-.1-.9-.3-.2-.5-.4-.8-.7-1.9-1.7-2.6-2.7-2.9-3.4-.1-.3.1-.8.3-1.1l1.2-1.2c.3-.3.6-.2.8.1.8 1.3 2.2 2.5 3 3.3.3.3.6.5 1 .8.3.2.7.2.9-.1l.4-.5c.2-.3.2-.7-.1-.9-.3-.2-.6-.5-.9-.7-1.8-1.6-2.5-2.6-2.8-3.2-.2-.3 0-.8.3-1.1l1.2-1.2c.3-.3.6-.2.8.1.8 1.3 2.1 2.4 2.9 3.1.2.2.5.4.7.6.3.2.7.2.9-.1l.4-.5c.2-.3.2-.7-.1-.9-.2-.2-.4-.4-.6-.5-1.6-1.5-2.4-2.4-2.8-3.1-.2-.3 0-.8.2-1.1l.9-.9c.3-.3.6-.2.8.1.9 1.4 2.4 2.7 3.5 3.5 11.7 9.8 26.6 15.1 42.4 15.1 15.8 0 30.8-5.4 42.5-15.1 1-.8 2.5-2.1 3.5-3.5.2-.3.5-.4.8-.1l1.4 1.3c.3.3.4.7.2 1.1-.4.6-1.1 1.6-2.7 3-.2.2-.4.4-.7.5-.3.2-.3.6-.1.9l.4.5c.2.3.6.3.9.1.2-.2.5-.4.7-.6.8-.7 2-1.8 2.9-3.1.2-.3.6-.4.8-.1l1.3 1.2c.3.3.4.7.3 1.1-.3.6-1.1 1.6-2.8 3.2-.3.3-.6.5-.9.8-.3.2-.3.6-.1.9l.4.5c.2.3.6.3.9.1.3-.3.7-.5 1-.8.8-.7 2.1-1.9 2.9-3.2.2-.3.5-.4.8-.1l1.3 1.2c.3.3.4.8.3 1.1-.3.6-1.1 1.7-2.8 3.3-.3.2-.5.5-.8.7-.3.2-.3.6-.1.9l.4.5c.2.3.6.3.9.1.3-.2.6-.5.9-.7.7-.8 2.1-2.1 2.9-3.4zm-19.6-10.9c.8-.3 1.6-.8 2.4-1.2 1.5-.9 3.6-2 4.2-1.4v.2c-.1.5-.6 1.3-1.5 2.3-1 .9-2.1 1.8-3.1 2.6-.3.2-.7.2-.9-.1l-1.3-1.7c-.2-.2-.1-.5.2-.7zm26.7-10.1c-2.8 4.7-6.2 9.1-10 13-.2.3-.7.3-.9 0l-7.6-7.4c-1.8-1.7-4.6-.2-6.9 1.1-1 .5-3.2 1.8-3.5 1.4-.1-.1-.4-.6 1.1-2.3.2-.3.7-.7.9-.9.8-.7 1.5-1.4 2.3-2.1.1 0 .1-.1.1-.1 3.9-3.9 7.5-8.5 10.3-13.6 3.1-5.6 4.1-5.7 4.4-5.5.5.2-.2 2.6-.5 3.7-.7 2.6-1.6 5.8 1 7.1h.1c.1 0 .4.2.7.3l8.1 4.3c.3.2.6.3.6.3s0 .1.1.1c0 .1-.1.3-.3.6zm11.9.3c-.3.5-.7.9-1.3 1.1-.6.2-1.2.1-1.8-.2l-.4-.2c-.2-.1-.2-.4.1-.7 1-1.2 1.8-2.7 2.3-3.7.9-1.9 1.7-3.8 2.4-5.8.1-.3-.1-.7-.4-.8l-.6-.2c-.3-.1-.7.1-.8.4-.7 1.9-1.4 3.8-2.3 5.6-1.1 2.1-1.9 3.2-2.4 3.6-.3.2-.8.2-1.1 0l-1.4-.7c-.3-.2-.4-.5-.1-.8.9-1.1 1.6-2.5 2.1-3.4.9-1.8 1.6-3.8 2.3-5.7.1-.3-.1-.7-.4-.8l-.6-.2c-.3-.1-.7.1-.8.4-.7 1.9-1.4 3.7-2.2 5.5-.9 1.8-1.6 2.8-2.1 3.4-.2.3-.7.3-1.1.1l-2-1.1c-.3-.2-.4-.5-.1-.8 1-1.1 1.7-2.6 2.2-3.5.7-1.6 1.4-3.2 2-4.8.1-.3-.1-.7-.4-.8l-.6-.2c-.3-.1-.7.1-.8.4-.6 1.6-1.2 3.1-1.9 4.6-1 1.9-1.7 2.9-2.2 3.5-.3.3-.8.3-1.1.1l-1.2-.7c-.3-.2-.4-.5-.1-.8 1-1.2 1.8-2.7 2.3-3.6 4.1-8.9 6.2-18.4 6.2-28.3 0-21.3-9.5-40.7-26.1-53.3-3-2.2-6.3-3.6-9.2-4.8-3.4-1.4-6.4-2.7-8.3-4.8-1.5-1.7-1.8-3.6-1.1-5.3.1-.3.4-.3.5 0 .4.9.9 1.7 1.6 2.6 3 3.7 6.2 4.8 9.3 5.9 1.9.7 3.8 1.3 5.7 2.6.3.2.7.1 1-.1l.5-.5c.2-.3.2-.7-.1-.9-2.2-1.5-4.3-2.2-6.4-3-3.1-1.1-5.8-2-8.4-5.3-.8-1-1.4-2.1-1.7-3.1-.1-.3.1-.8.3-1.1l.9-.8c.3-.2.6-.2.7.2.4 1.1 1 2.1 1.8 3.1 3 3.8 6.5 4.8 9.9 5.9 1.7.5 3.3 1 4.8 1.8.3.2.8.1 1-.2l.5-.5c.2-.3.2-.6-.1-.8-1.8-1-3.7-1.6-5.6-2.2-3.2-1-6.3-2-9-5.2-.9-1.1-1.5-2.3-1.7-3.3-.1-.3.1-.8.3-1.1l1.1-1c.3-.2.6-.2.7.2.3 1 .9 2.2 1.9 3.4 3.1 3.9 6.9 4.9 10.5 5.9 1.2.3 2.4.7 3.6 1.1.3.1.8 0 1-.3l.5-.6c.2-.3.2-.6-.2-.8-1.4-.6-2.9-1-4.4-1.4-3.5-1-6.8-1.9-9.5-5.3-1.2-1.5-1.7-2.8-1.8-3.8-.1-.4.2-.8.4-1.1l1.2-1.1c.3-.2.5-.1.6.2.2 1.3.9 2.9 2.5 4.5 3 3.1 6.2 4.1 9.6 5.1 3.6 1.1 7.6 2.3 12.2 6.3C164.1 50 174 72.8 174 96.5c0 13.8-3.2 27-9.5 39.2z"/><linearGradient id="SVGID_59_" gradientUnits="userSpaceOnUse" x1="164.175" y1="99.549" x2="164.175" y2="108.677"><stop offset="0" stop-color="#E1AE65"/><stop offset="1" stop-color="#B78846"/></linearGradient><path class="st58" d="M169.2 100.7c0 .3-.2.5-.5.6l-4.4 2-4-3.1c-.2-.2-.2-.4-.2-.6h-.3l-.3 2.9h.3c0-.2.1-.4.3-.3.3 0 1.6 1 2.5 1.9-.4.1-2.7 1.4-2.9 1.3-.3 0-.2-.3-.2-.4h-.3l-.4 3h.3c0-.1.1-.4.2-.4l4.9-2.3c1.3.8 2.6 1.9 3.7 2.8.2.2.3.3.3.6h.3l.3-2.8h-.3c-.1.3-.1.4-.3.4-.2 0-1.3-1.1-2.4-1.8.6-.3 2.5-1.2 2.7-1.2.1 0 .2.1.2.4h.3l.4-3h-.2z"/><linearGradient id="SVGID_60_" gradientUnits="userSpaceOnUse" x1="162.328" y1="111.806" x2="162.328" y2="117.215"><stop offset="0" stop-color="#E1AE65"/><stop offset="1" stop-color="#B78846"/></linearGradient><path class="st59" d="M166.5 114.6l-7.9-2.1c-.3-.1-.4-.2-.3-.7l-.2-.1-.8 3 .2.1c.2-.5.3-.6.6-.5l7.9 2.1c.3.1.4.2.3.7l.2.1.8-3-.2-.1c-.1.6-.3.6-.6.5z"/></svg>